<svg width="73" height="20" viewBox="0 0 73 20" fill="none" xmlns="http://www.w3.org/2000/svg">
<path opacity="0.2" d="M2.2655 2.41016H6.27085V17.9278H2.2655V2.41016Z" fill="white"/>
<path opacity="0.2" d="M7.61328 6.28955H11.6186V17.9278H7.61328V6.28955Z" fill="white"/>
<path opacity="0.2" d="M12.9611 10.1689H16.9664V17.9278H12.9611V10.1689Z" fill="white"/>
<path opacity="0.2" d="M18.3088 6.28955H22.3142V17.9278H18.3088V6.28955Z" fill="white"/>
<path opacity="0.2" d="M23.6566 10.1689H27.662V17.9278H23.6566V10.1689Z" fill="white"/>
<path opacity="0.2" d="M29.0045 7.14307H33.0099V17.9278H29.0045V7.14307Z" fill="white"/>
<path opacity="0.2" d="M34.3523 10.5957H38.3576V17.9278H34.3523V10.5957Z" fill="white"/>
<path opacity="0.2" d="M39.7001 8.65576H43.7054V17.9275H39.7001V8.65576Z" fill="white"/>
<path opacity="0.2" d="M45.0479 6.28955H49.0532V17.9278H45.0479V6.28955Z" fill="white"/>
<path opacity="0.2" d="M50.3956 10.1689H54.401V17.9278H50.3956V10.1689Z" fill="white"/>
<path opacity="0.2" d="M55.7434 7.14307H59.7488V17.9278H55.7434V7.14307Z" fill="white"/>
<path opacity="0.2" d="M61.0912 10.5957H65.0965V17.9278H61.0912V10.5957Z" fill="white"/>
<path opacity="0.2" d="M66.439 4.38867H70.4443V17.9278H66.439V4.38867Z" fill="white"/>
</svg>
